<svg id="Layer_1" data-name="Layer 1" xmlns="http://www.w3.org/2000/svg" viewBox="0 0 569.34 887.08"><defs><style>.cls-1{fill:#eaa792;}.cls-2{fill:#cc3636;}.cls-3{fill:#992929;}.cls-4{fill:#2b9938;}.cls-5{fill:#2e8737;}.cls-6{fill:#44a54d;}.cls-7{fill:#752831;}</style></defs><path class="cls-1" d="M190,661" transform="translate(-659.16 -75.42)"/><path class="cls-2" d="M1228.5,527c0,95-46.71,234.23-118.38,329.55l-417.18-451c48-73,142.77-106,251.56-106C1101.63,299.5,1228.5,369.87,1228.5,527Z" transform="translate(-659.16 -75.42)"/><path class="cls-2" d="M819,541.78l291.15,314.77c-29.22,11.57-78.61,26-136.62,17-126-19.74-193.21-135-221.5-183.5-68.26-117-64.1-233.86-59.06-284.48Z" transform="translate(-659.16 -75.42)"/><path class="cls-3" d="M1110.12,856.55c-46.88,62.39-104.46,106-166.62,106-157.13,0-284-278.37-284-435.5,0-1.92,0-3.83.06-5.74.91-46.2,12.88-84.61,33.38-115.74,5.24,84.8,22,152,36.71,198,13.82,43.28,25.62,79.22,54.6,120.56,40,57,86,86.41,99.25,94.46,42.36,25.83,79.92,35.23,92,38A305.37,305.37,0,0,0,1110.12,856.55Z" transform="translate(-659.16 -75.42)"/><path class="cls-2" d="M747,679" transform="translate(-659.16 -75.42)"/><path class="cls-4" d="M976.5,206.5" transform="translate(-659.16 -75.42)"/><path class="cls-5" d="M914,316S843.5,100.11,934,84c93.07-16.57,95.13-4.89,96,0,0,0,7,21.49-11,22-10.18.29-67,2.93-83,22-4.21,5-5.32,14.24-4,35,5.09,80.26,6.26,98.74,9,142" transform="translate(-659.16 -75.42)"/><ellipse class="cls-5" cx="1021.59" cy="251.65" rx="128.99" ry="37.28" transform="translate(-629.12 528.07) rotate(-33.37)"/><ellipse class="cls-6" cx="1033.94" cy="285.15" rx="123.32" ry="39" transform="translate(-697.52 232.62) rotate(-16.64)"/><ellipse class="cls-4" cx="1009.32" cy="222.13" rx="133.48" ry="36.03" transform="translate(-514.56 712.68) rotate(-45.62)"/><ellipse class="cls-5" cx="807.64" cy="271.8" rx="37.28" ry="128.99" transform="translate(-412.03 838.24) rotate(-67.47)"/><ellipse class="cls-6" cx="828.47" cy="242.8" rx="39" ry="123.32" transform="translate(-543 655.15) rotate(-50.74)"/><ellipse class="cls-4" cx="790.08" cy="298.51" rx="36.03" ry="133.48" transform="translate(-303.88 947.16) rotate(-79.71)"/><ellipse class="cls-1" cx="492.84" cy="427.58" rx="63" ry="88"/><path class="cls-7" d="M1099.06,525c-2,1.08-3.52,5.37-8.17,20.69-3.27,10.77-2.68,19.74-2,22.77.63,2.64,1.17,11.77,8.12,20.27,1.58,1.93,10.32,3,13.58,1.63,5-2.15,7.56-8.31,7.62-8.78.12-.93-.47-12.25-5.3-14.57-3.18-1.53-10.57-.31-13.16,4.18-1.7-3.35-2.7-6-3.78-17C1094.5,538.7,1097.08,527.5,1099.06,525Z" transform="translate(-659.16 -75.42)"/><path class="cls-7" d="M1070.06,382c-2,1.08-3.52,5.37-8.17,20.69-3.27,10.77-2.68,19.74-2,22.77.63,2.64,1.17,11.77,8.12,20.27,1.58,1.93,10.32,3,13.58,1.63,5-2.15,7.56-8.31,7.62-8.78.12-.93-.47-12.25-5.3-14.57-3.18-1.53-10.57-.31-13.16,4.18-1.7-3.35-2.7-6-3.78-17C1065.5,395.7,1068.08,384.5,1070.06,382Z" transform="translate(-659.16 -75.42)"/><path class="cls-7" d="M1008.06,372c-2,1.08-3.52,5.37-8.17,20.69-3.27,10.77-2.68,19.74-2,22.77.63,2.64,1.17,11.77,8.12,20.27,1.58,1.93,10.32,3,13.58,1.63,5-2.15,7.56-8.31,7.62-8.78.12-.93-.47-12.25-5.3-14.57-3.18-1.53-10.57-.31-13.16,4.18-1.7-3.35-2.7-6-3.78-17C1003.5,385.7,1006.08,374.5,1008.06,372Z" transform="translate(-659.16 -75.42)"/><path class="cls-7" d="M1042.06,445c-2,1.08-3.52,5.37-8.17,20.69-3.27,10.77-2.68,19.74-2,22.77.63,2.64,1.17,11.77,8.12,20.27,1.58,1.93,10.32,3,13.58,1.63,5-2.15,7.56-8.31,7.62-8.78.12-.93-.47-12.25-5.3-14.57-3.18-1.53-10.57-.31-13.16,4.18-1.7-3.35-2.7-6-3.78-17C1037.5,458.7,1040.08,447.5,1042.06,445Z" transform="translate(-659.16 -75.42)"/><path class="cls-7" d="M941.06,382c-2,1.08-3.52,5.37-8.17,20.69-3.27,10.77-2.68,19.74-2,22.77.63,2.64,1.17,11.77,8.12,20.27,1.58,1.93,10.32,3,13.58,1.63,5-2.15,7.56-8.31,7.62-8.78.12-.93-.47-12.25-5.3-14.57-3.18-1.53-10.57-.31-13.16,4.18-1.7-3.35-2.7-6-3.78-17C936.5,395.7,939.08,384.5,941.06,382Z" transform="translate(-659.16 -75.42)"/><path class="cls-7" d="M979.06,459c-2,1.08-3.52,5.37-8.17,20.69-3.27,10.77-2.68,19.74-2,22.77.63,2.64,1.17,11.77,8.12,20.27,1.58,1.93,10.32,3,13.58,1.63,5-2.15,7.56-8.31,7.62-8.78.12-.93-.47-12.25-5.3-14.57-3.18-1.53-10.57-.31-13.16,4.18-1.7-3.35-2.7-6-3.78-17C974.5,472.7,977.08,461.5,979.06,459Z" transform="translate(-659.16 -75.42)"/><path class="cls-7" d="M1042.06,545c-2,1.08-3.52,5.37-8.17,20.69-3.27,10.77-2.68,19.74-2,22.77.63,2.64,1.17,11.77,8.12,20.27,1.58,1.93,10.32,3,13.58,1.63,5-2.15,7.56-8.31,7.62-8.78.12-.93-.47-12.25-5.3-14.57-3.18-1.53-10.57-.31-13.16,4.18-1.7-3.35-2.7-6-3.78-17C1037.5,558.7,1040.08,547.5,1042.06,545Z" transform="translate(-659.16 -75.42)"/><path class="cls-7" d="M1178.06,426c-2,1.08-3.52,5.37-8.17,20.69-3.27,10.77-2.68,19.74-2,22.77.63,2.64,1.17,11.77,8.12,20.27,1.58,1.93,10.32,3,13.58,1.63,5-2.15,7.56-8.31,7.62-8.78.12-.93-.47-12.25-5.3-14.57-3.18-1.53-10.57-.31-13.16,4.18-1.7-3.35-2.7-6-3.78-17C1173.5,439.7,1176.08,428.5,1178.06,426Z" transform="translate(-659.16 -75.42)"/><path class="cls-7" d="M1126.06,445c-2,1.08-3.52,5.37-8.17,20.69-3.27,10.77-2.68,19.74-2,22.77.63,2.64,1.17,11.77,8.12,20.27,1.58,1.93,10.32,3,13.58,1.63,5-2.15,7.56-8.31,7.62-8.78.12-.93-.47-12.25-5.3-14.57-3.18-1.53-10.57-.31-13.16,4.18-1.7-3.35-2.7-6-3.78-17C1121.5,458.7,1124.08,447.5,1126.06,445Z" transform="translate(-659.16 -75.42)"/><path class="cls-7" d="M1178.06,525c-2,1.08-3.52,5.37-8.17,20.69-3.27,10.77-2.68,19.74-2,22.77.63,2.64,1.17,11.77,8.12,20.27,1.58,1.93,10.32,3,13.58,1.63,5-2.15,7.56-8.31,7.62-8.78.12-.93-.47-12.25-5.3-14.57-3.18-1.53-10.57-.31-13.16,4.18-1.7-3.35-2.7-6-3.78-17C1173.5,538.7,1176.08,527.5,1178.06,525Z" transform="translate(-659.16 -75.42)"/><path class="cls-7" d="M1148.06,622c-2,1.08-3.52,5.37-8.17,20.69-3.27,10.77-2.68,19.74-2,22.77.63,2.64,1.17,11.77,8.12,20.27,1.58,1.93,10.32,3,13.58,1.63,5-2.15,7.56-8.31,7.62-8.78.12-.93-.47-12.25-5.3-14.57-3.18-1.53-10.57-.31-13.16,4.18-1.7-3.35-2.7-6-3.78-17C1143.5,635.7,1146.08,624.5,1148.06,622Z" transform="translate(-659.16 -75.42)"/><path class="cls-7" d="M1106.06,661c-2,1.08-3.52,5.37-8.17,20.69-3.27,10.77-2.68,19.74-2,22.77.63,2.64,1.17,11.77,8.12,20.27,1.58,1.93,10.32,3,13.58,1.63,5-2.15,7.56-8.31,7.62-8.78.12-.93-.47-12.25-5.3-14.57-3.18-1.53-10.57-.31-13.16,4.18-1.7-3.35-2.7-6-3.78-17C1101.5,674.7,1104.08,663.5,1106.06,661Z" transform="translate(-659.16 -75.42)"/><path class="cls-7" d="M1085.06,769c-2,1.08-3.52,5.37-8.17,20.69-3.27,10.77-2.68,19.74-2,22.77.63,2.64,1.17,11.77,8.12,20.27,1.58,1.93,10.32,3,13.58,1.63,5-2.15,7.56-8.31,7.62-8.78.12-.93-.47-12.25-5.3-14.57-3.18-1.53-10.57-.31-13.16,4.18-1.7-3.35-2.7-6-3.78-17C1080.5,782.7,1083.08,771.5,1085.06,769Z" transform="translate(-659.16 -75.42)"/><path class="cls-7" d="M972.06,870c-2,1.08-3.52,5.37-8.17,20.69-3.27,10.77-2.68,19.74-2,22.77.63,2.64,1.17,11.77,8.12,20.27,1.58,1.93,10.32,3,13.58,1.63,5-2.15,7.56-8.31,7.62-8.78.12-.93-.47-12.25-5.3-14.57-3.18-1.53-10.57-.31-13.16,4.18-1.7-3.35-2.7-6-3.78-17C967.5,883.7,970.08,872.5,972.06,870Z" transform="translate(-659.16 -75.42)"/><path class="cls-7" d="M884.06,810c-2,1.08-3.52,5.37-8.17,20.69-3.27,10.77-2.68,19.74-2,22.77.63,2.64,1.17,11.77,8.12,20.27,1.58,1.93,10.32,3,13.58,1.63,5-2.15,7.56-8.31,7.62-8.78.12-.93-.47-12.25-5.3-14.57-3.18-1.53-10.57-.31-13.16,4.18-1.7-3.35-2.7-6-3.78-17C879.5,823.7,882.08,812.5,884.06,810Z" transform="translate(-659.16 -75.42)"/><path class="cls-7" d="M803.06,760c-2,1.08-3.52,5.37-8.17,20.69-3.27,10.77-2.68,19.74-2,22.77.63,2.64,1.17,11.77,8.12,20.27,1.58,1.93,10.32,3,13.58,1.63,5-2.15,7.56-8.31,7.62-8.78.12-.93-.47-12.25-5.3-14.57-3.18-1.53-10.57-.31-13.16,4.18-1.7-3.35-2.7-6-3.78-17C798.5,773.7,801.08,762.5,803.06,760Z" transform="translate(-659.16 -75.42)"/><path class="cls-7" d="M833.06,628c-2,1.08-3.52,5.37-8.17,20.69-3.27,10.77-2.68,19.74-2,22.77.63,2.64,1.17,11.77,8.12,20.27,1.58,1.93,10.32,3,13.58,1.63,5-2.15,7.56-8.31,7.62-8.78.12-.93-.47-12.25-5.3-14.57-3.18-1.53-10.57-.31-13.16,4.18-1.7-3.35-2.7-6-3.78-17C828.5,641.7,831.08,630.5,833.06,628Z" transform="translate(-659.16 -75.42)"/><path class="cls-7" d="M884.06,707c-2,1.08-3.52,5.37-8.17,20.69-3.27,10.77-2.68,19.74-2,22.77.63,2.64,1.17,11.77,8.12,20.27,1.58,1.93,10.32,3,13.58,1.63,5-2.15,7.56-8.31,7.62-8.78.12-.93-.47-12.25-5.3-14.57-3.18-1.53-10.57-.31-13.16,4.18-1.7-3.35-2.7-6-3.78-17C879.5,720.7,882.08,709.5,884.06,707Z" transform="translate(-659.16 -75.42)"/><path class="cls-7" d="M715.06,608c-2,1.08-3.52,5.37-8.17,20.69-3.27,10.77-2.68,19.74-2,22.77.63,2.64,1.17,11.77,8.12,20.27,1.58,1.93,10.32,3,13.58,1.63,5-2.15,7.56-8.31,7.62-8.78.12-.93-.47-12.25-5.3-14.57-3.18-1.53-10.57-.31-13.16,4.18-1.7-3.35-2.7-6-3.78-17C710.5,621.7,713.08,610.5,715.06,608Z" transform="translate(-659.16 -75.42)"/><path class="cls-7" d="M786.06,661c-2,1.08-3.52,5.37-8.17,20.69-3.27,10.77-2.68,19.74-2,22.77.63,2.64,1.17,11.77,8.12,20.27,1.58,1.93,10.32,3,13.58,1.63,5-2.15,7.56-8.31,7.62-8.78.12-.93-.47-12.25-5.3-14.57-3.18-1.53-10.57-.31-13.16,4.18-1.7-3.35-2.7-6-3.78-17C781.5,674.7,784.08,663.5,786.06,661Z" transform="translate(-659.16 -75.42)"/><path class="cls-7" d="M922.06,641c-2,1.08-3.52,5.37-8.17,20.69-3.27,10.77-2.68,19.74-2,22.77.63,2.64,1.17,11.77,8.12,20.27,1.58,1.93,10.32,3,13.58,1.63,5-2.15,7.56-8.31,7.62-8.78.12-.93-.47-12.25-5.3-14.57-3.18-1.53-10.57-.31-13.16,4.18-1.7-3.35-2.7-6-3.78-17C917.5,654.7,920.08,643.5,922.06,641Z" transform="translate(-659.16 -75.42)"/><path class="cls-7" d="M972.06,727c-2,1.08-3.52,5.37-8.17,20.69-3.27,10.77-2.68,19.74-2,22.77.63,2.64,1.17,11.77,8.12,20.27,1.58,1.93,10.32,3,13.58,1.63,5-2.15,7.56-8.31,7.62-8.78.12-.93-.47-12.25-5.3-14.57-3.18-1.53-10.57-.31-13.16,4.18-1.7-3.35-2.7-6-3.78-17C967.5,740.7,970.08,729.5,972.06,727Z" transform="translate(-659.16 -75.42)"/><path class="cls-7" d="M771.06,437c-2,1.08-3.52,5.37-8.17,20.69-3.27,10.77-2.68,19.74-2,22.77.63,2.64,1.17,11.77,8.12,20.27,1.58,1.93,10.32,3,13.58,1.63,5-2.15,7.56-8.31,7.62-8.78.12-.93-.47-12.25-5.3-14.57-3.18-1.53-10.57-.31-13.16,4.18-1.7-3.35-2.7-6-3.78-17C766.5,450.7,769.08,439.5,771.06,437Z" transform="translate(-659.16 -75.42)"/><path class="cls-7" d="M715.06,445c-2,1.08-3.52,5.37-8.17,20.69-3.27,10.77-2.68,19.74-2,22.77.63,2.64,1.17,11.77,8.12,20.27,1.58,1.93,10.32,3,13.58,1.63,5-2.15,7.56-8.31,7.62-8.78.12-.93-.47-12.25-5.3-14.57-3.18-1.53-10.57-.31-13.16,4.18-1.7-3.35-2.7-6-3.78-17C710.5,458.7,713.08,447.5,715.06,445Z" transform="translate(-659.16 -75.42)"/><path class="cls-7" d="M743.06,525c-2,1.08-3.52,5.37-8.17,20.69-3.27,10.77-2.68,19.74-2,22.77.63,2.64,1.17,11.77,8.12,20.27,1.58,1.93,10.32,3,13.58,1.63,5-2.15,7.56-8.31,7.62-8.78.12-.93-.47-12.25-5.3-14.57-3.18-1.53-10.57-.31-13.16,4.18-1.7-3.35-2.7-6-3.78-17C738.5,538.7,741.08,527.5,743.06,525Z" transform="translate(-659.16 -75.42)"/><path class="cls-7" d="M786.06,360c-2,1.08-3.52,5.37-8.17,20.69-3.27,10.77-2.68,19.74-2,22.77.63,2.64,1.17,11.77,8.12,20.27,1.58,1.93,10.32,3,13.58,1.63,5-2.15,7.56-8.31,7.62-8.78.12-.93-.47-12.25-5.3-14.57-3.18-1.53-10.57-.31-13.16,4.18-1.7-3.35-2.7-6-3.78-17C781.5,373.7,784.08,362.5,786.06,360Z" transform="translate(-659.16 -75.42)"/><path class="cls-7" d="M839.06,426c-2,1.08-3.52,5.37-8.17,20.69-3.27,10.77-2.68,19.74-2,22.77.63,2.64,1.17,11.77,8.12,20.27,1.58,1.93,10.32,3,13.58,1.63,5-2.15,7.56-8.31,7.62-8.78.12-.93-.47-12.25-5.3-14.57-3.18-1.53-10.57-.31-13.16,4.18-1.7-3.35-2.7-6-3.78-17C834.5,439.7,837.08,428.5,839.06,426Z" transform="translate(-659.16 -75.42)"/><path class="cls-7" d="M839.06,525c-2,1.08-3.52,5.37-8.17,20.69-3.27,10.77-2.68,19.74-2,22.77.63,2.64,1.17,11.77,8.12,20.27,1.58,1.93,10.32,3,13.58,1.63,5-2.15,7.56-8.31,7.62-8.78.12-.93-.47-12.25-5.3-14.57-3.18-1.53-10.57-.31-13.16,4.18-1.7-3.35-2.7-6-3.78-17C834.5,538.7,837.08,527.5,839.06,525Z" transform="translate(-659.16 -75.42)"/><path class="cls-7" d="M863.06,349c-2,1.08-3.52,5.37-8.17,20.69-3.27,10.77-2.68,19.74-2,22.77.63,2.64,1.17,11.77,8.12,20.27,1.58,1.93,10.32,3,13.58,1.63,5-2.15,7.56-8.31,7.62-8.78.12-.93-.47-12.25-5.3-14.57-3.18-1.53-10.57-.31-13.16,4.18-1.7-3.35-2.7-6-3.78-17C858.5,362.7,861.08,351.5,863.06,349Z" transform="translate(-659.16 -75.42)"/><path class="cls-7" d="M899.06,445c-2,1.08-3.52,5.37-8.17,20.69-3.27,10.77-2.68,19.74-2,22.77.63,2.64,1.17,11.77,8.12,20.27,1.58,1.93,10.32,3,13.58,1.63,5-2.15,7.56-8.31,7.62-8.78.12-.93-.47-12.25-5.3-14.57-3.18-1.53-10.57-.31-13.16,4.18-1.7-3.35-2.7-6-3.78-17C894.5,458.7,897.08,447.5,899.06,445Z" transform="translate(-659.16 -75.42)"/><path class="cls-7" d="M911.06,539c-2,1.08-3.52,5.37-8.17,20.69-3.27,10.77-2.68,19.74-2,22.77.63,2.64,1.17,11.77,8.12,20.27,1.58,1.93,10.32,3,13.58,1.63,5-2.15,7.56-8.31,7.62-8.78.12-.93-.47-12.25-5.3-14.57-3.18-1.53-10.57-.31-13.16,4.18-1.7-3.35-2.7-6-3.78-17C906.5,552.7,909.08,541.5,911.06,539Z" transform="translate(-659.16 -75.42)"/><path class="cls-7" d="M979.06,575c-2,1.08-3.52,5.37-8.17,20.69-3.27,10.77-2.68,19.74-2,22.77.63,2.64,1.17,11.77,8.12,20.27,1.58,1.93,10.32,3,13.58,1.63,5-2.15,7.56-8.31,7.62-8.78.12-.93-.47-12.25-5.3-14.57-3.18-1.53-10.57-.31-13.16,4.18-1.7-3.35-2.7-6-3.78-17C974.5,588.7,977.08,577.5,979.06,575Z" transform="translate(-659.16 -75.42)"/><path class="cls-7" d="M1042.06,674c-2,1.08-3.52,5.37-8.17,20.69-3.27,10.77-2.68,19.74-2,22.77.63,2.64,1.17,11.77,8.12,20.27,1.58,1.93,10.32,3,13.58,1.63,5-2.15,7.56-8.31,7.62-8.78.12-.93-.47-12.25-5.3-14.57-3.18-1.53-10.57-.31-13.16,4.18-1.7-3.35-2.7-6-3.78-17C1037.5,687.7,1040.08,676.5,1042.06,674Z" transform="translate(-659.16 -75.42)"/><path class="cls-7" d="M1017.06,793c-2,1.08-3.52,5.37-8.17,20.69-3.27,10.77-2.68,19.74-2,22.77.63,2.64,1.17,11.77,8.12,20.27,1.58,1.93,10.32,3,13.58,1.63,5-2.15,7.56-8.31,7.62-8.78.12-.93-.47-12.25-5.3-14.57-3.18-1.53-10.57-.31-13.16,4.18-1.7-3.35-2.7-6-3.78-17C1012.5,806.7,1015.08,795.5,1017.06,793Z" transform="translate(-659.16 -75.42)"/></svg>